<svg width="20" height="33" viewBox="0 0 20 33" fill="none" xmlns="http://www.w3.org/2000/svg">
<line y1="-1" x2="13.9212" y2="-1" transform="matrix(0.707107 -0.707107 -0.707107 -0.707107 0 9.84375)"/>
<line x1="18.9804" y1="10.5509" x2="9.13664" y2="0.707107"/>
<path d="M13.342 22.652C13.342 23.696 12.916 24.554 12.064 25.226C11.44 25.718 10.72 26.012 9.904 26.108L9.886 27.422H8.878V26.126C8.11 26.114 7.396 25.91 6.736 25.514C6.088 25.118 5.578 24.578 5.206 23.894L6.25 22.904C6.49 23.432 6.862 23.87 7.366 24.218C7.882 24.554 8.416 24.728 8.968 24.74L8.986 20.294L8.32 19.988C7.708 19.712 7.24 19.448 6.916 19.196C6.124 18.56 5.728 17.738 5.728 16.73C5.728 15.794 6.082 15.008 6.79 14.372C7.378 13.856 8.14 13.556 9.076 13.472L9.094 12.248H10.102V13.49C11.398 13.598 12.37 14.156 13.018 15.164L12.136 16.19C11.608 15.35 10.9 14.888 10.012 14.804L9.994 18.962L11.074 19.466C12.586 20.126 13.342 21.188 13.342 22.652ZM8.752 18.458L9.04 18.602L9.058 14.786C8.518 14.846 8.086 15.044 7.762 15.38C7.45 15.704 7.294 16.118 7.294 16.622C7.33 17.102 7.468 17.474 7.708 17.738C7.948 18.002 8.296 18.242 8.752 18.458ZM11.758 22.85C11.758 22.37 11.644 21.98 11.416 21.68C11.2 21.368 10.858 21.098 10.39 20.87L9.94 20.654L9.922 24.758C10.378 24.746 10.798 24.554 11.182 24.182C11.566 23.798 11.758 23.354 11.758 22.85Z" stroke="0"/>
</svg>
