<svg width="89" height="68" viewBox="0 0 89 68" fill="none" xmlns="http://www.w3.org/2000/svg">
<path d="M24.7108 23.4523L24.7814 24.8175L30.7983 27.4353L35.7893 27.1251L35.3675 22.9021L30.7906 20.6564L24.8018 20.6425C24.6946 21.5625 24.6617 22.5012 24.7108 23.4523Z" fill="black"/>
<path d="M35.3692 22.9013C35.2872 21.3123 35.7717 19.9791 36.8097 18.9388C38.2925 17.4526 41.6714 16.1189 44.4256 18.8668C47.1799 21.6148 45.8538 24.9967 44.371 26.4829C43.333 27.5233 42.001 28.0109 40.4119 27.9324L35.7894 27.125L24.7814 24.8175L31.6524 33.3658L38.5196 38.5245L39.8851 38.5919C43.3313 38.7623 46.6206 37.8933 49.3973 36.0792C51.9761 34.3942 54.0138 31.9803 55.2899 29.0984C56.5659 26.2165 56.9834 23.0853 56.4974 20.0432C55.974 16.768 54.4063 13.7486 51.9637 11.3115C49.5211 8.87452 46.4982 7.31372 43.2217 6.79792C40.1786 6.31879 37.0484 6.74354 34.1694 8.0261C31.2903 9.30858 28.8811 11.3519 27.202 13.9344C25.8932 15.9477 25.0833 18.2293 24.8019 20.6426L35.3692 22.9013Z" fill="black"/>
<path d="M38.5902 39.8897L38.5196 38.5245L32.5027 35.9068L27.5117 36.2169L27.9335 40.4399L32.5104 42.6856L38.4992 42.6994C38.6064 41.7795 38.6394 40.8408 38.5902 39.8897Z" fill="black"/>
<path d="M27.9318 40.4407C28.0138 42.0297 27.5293 43.3629 26.4914 44.4033C25.0084 45.8894 21.6296 47.2231 18.8754 44.4752C16.1212 41.7272 17.4472 38.3454 18.93 36.8592C19.9679 35.8189 21.3001 35.3312 22.8892 35.4097L27.5115 36.2169L38.5196 38.5245L24.7814 24.8175L23.416 24.7501C19.9698 24.5797 16.6806 25.4487 13.9038 27.2628C11.325 28.9478 9.28731 31.3617 8.01122 34.2435C6.73522 37.1255 6.31767 40.2567 6.80373 43.2987C7.32699 46.574 8.89473 49.5935 11.3373 52.0305C13.7799 54.4675 16.8028 56.0283 20.0793 56.5441C23.1224 57.0233 26.2526 56.5985 29.1316 55.316C32.0107 54.0335 34.4199 51.9902 36.099 49.4076C37.4079 47.3943 38.2178 45.1127 38.4992 42.6994L27.9318 40.4407Z" fill="black"/>
<path d="M49.4435 54.6373C49.4435 55.4959 49.1029 56.1959 48.4215 56.7373C47.9175 57.1573 47.1149 57.3673 46.0135 57.3673H43.4235V47.7073H45.5515C46.6062 47.7073 47.3529 47.8706 47.7915 48.1973C48.3982 48.6639 48.7015 49.3079 48.7015 50.1293C48.7015 50.6146 48.5569 51.0579 48.2675 51.4593C47.9689 51.8606 47.6049 52.1219 47.1755 52.2433C47.8849 52.3553 48.4402 52.6213 48.8415 53.0413C49.2429 53.4613 49.4435 53.9933 49.4435 54.6373ZM48.6315 54.6793C48.6315 54.0166 48.3515 53.4893 47.7915 53.0973C47.3809 52.8266 46.7042 52.6913 45.7615 52.6913H44.1795V56.6813H45.7615C46.7415 56.6813 47.4182 56.5506 47.7915 56.2893C48.3515 55.8973 48.6315 55.3606 48.6315 54.6793ZM47.9315 50.1573C47.9315 49.4386 47.6749 48.9486 47.1615 48.6873C46.8069 48.4913 46.2935 48.3933 45.6215 48.3933H44.1795V52.0193H45.4815C46.2842 52.0193 46.8442 51.9026 47.1615 51.6693C47.6749 51.3053 47.9315 50.8013 47.9315 50.1573ZM54.2948 47.6793H54.7148L58.8448 57.3673H57.9628L56.7728 54.4693H52.1668L50.9628 57.3673H50.1648L54.2948 47.6793ZM54.4628 48.8273L52.4468 53.7693H56.4788L54.4628 48.8273ZM67.2292 47.7073H67.9852V57.3673H67.2992L60.8592 48.8973V57.3673H60.1032V47.7073H60.8592L67.2292 56.0373V47.7073ZM76.6708 47.7073L72.7788 51.4873L76.9508 57.3673H75.9988L72.2608 51.9773L71.1268 53.0973V57.3673H70.3708V47.7073H71.1268V52.2293L75.6908 47.7073H76.6708Z" fill="black"/>
<path d="M41.2311 6.61737V17.3069" stroke="#F0F0F3"/>
<path d="M41.2311 27.4874L44.0376 38.4362" stroke="#F0F0F3"/>
<path d="M22.9062 45.8123L22.9062 57.1151" stroke="#F0F0F3"/>
<path d="M17.8159 25.4513L20.5879 35.7752" stroke="#F0F0F3"/>
</svg>
