<svg width="20" height="35" viewBox="0 0 20 35" fill="none" xmlns="http://www.w3.org/2000/svg">
<line y1="-1" x2="13.9212" y2="-1" transform="matrix(-0.707107 0.707107 0.707107 0.707107 19.6875 2)" stroke="white" stroke-width="2"/>
<line x1="0.707107" y1="1.29289" x2="10.5509" y2="11.1366" stroke="white" stroke-width="2"/>
<path d="M13.3421 24.652C13.3421 25.696 12.9161 26.554 12.0641 27.226C11.4401 27.718 10.7201 28.012 9.90412 28.108L9.88612 29.422H8.87812V28.126C8.11012 28.114 7.39612 27.91 6.73612 27.514C6.08812 27.118 5.57812 26.578 5.20612 25.894L6.25012 24.904C6.49012 25.432 6.86212 25.87 7.36612 26.218C7.88212 26.554 8.41612 26.728 8.96812 26.74L8.98612 22.294L8.32012 21.988C7.70812 21.712 7.24012 21.448 6.91612 21.196C6.12412 20.56 5.72812 19.738 5.72812 18.73C5.72812 17.794 6.08212 17.008 6.79012 16.372C7.37812 15.856 8.14012 15.556 9.07612 15.472L9.09412 14.248H10.1021V15.49C11.3981 15.598 12.3701 16.156 13.0181 17.164L12.1361 18.19C11.6081 17.35 10.9001 16.888 10.0121 16.804L9.99412 20.962L11.0741 21.466C12.5861 22.126 13.3421 23.188 13.3421 24.652ZM8.75212 20.458L9.04012 20.602L9.05812 16.786C8.51812 16.846 8.08612 17.044 7.76212 17.38C7.45012 17.704 7.29412 18.118 7.29412 18.622C7.33012 19.102 7.46812 19.474 7.70812 19.738C7.94812 20.002 8.29612 20.242 8.75212 20.458ZM11.7581 24.85C11.7581 24.37 11.6441 23.98 11.4161 23.68C11.2001 23.368 10.8581 23.098 10.3901 22.87L9.94012 22.654L9.92212 26.758C10.3781 26.746 10.7981 26.554 11.1821 26.182C11.5661 25.798 11.7581 25.354 11.7581 24.85Z" fill="white"/>
</svg>
